<?xml version="1.0" encoding="utf-8"?>
<!-- Generator: Adobe Illustrator 16.0.0, SVG Export Plug-In . SVG Version: 6.00 Build 0)  -->
<!DOCTYPE svg PUBLIC "-//W3C//DTD SVG 1.1//EN" "http://www.w3.org/Graphics/SVG/1.1/DTD/svg11.dtd">
<svg version="1.1" id="Camada_1" xmlns="http://www.w3.org/2000/svg" xmlns:xlink="http://www.w3.org/1999/xlink" x="0px" y="0px"
	 width="592.47px" height="685.466px" viewBox="0 0 592.47 685.466" enable-background="new 0 0 592.47 685.466"
	 xml:space="preserve">
<g>
	<path fill="#3ACBC7" d="M136.125,334.375c5.758,0,10.534,2.959,10.534,8.883v26.253c14.928-26.148,36.237-39.225,63.935-39.225
		c16.285,0,29.655,4.566,40.105,13.685c10.452,9.135,15.681,20.916,15.681,35.345c0,9.539-2.389,17.51-7.15,23.906
		c-4.769,6.402-10.828,9.602-18.184,9.602c-9.806,0-14.709-4.494-14.709-13.484c0-8.174,4.142-12.256,12.431-12.256
		c2.209,0,4.425,0.816,6.633,2.453c2.209,1.629,3.729,2.447,4.56,2.447c3.587,0,5.387-4.861,5.387-14.594
		c0-11.354-4.228-20.615-12.666-27.778c-8.447-7.166-19.479-10.748-33.096-10.748c-23.43,0-40.451,8.705-51.076,26.094
		c-7.902,13.053-11.85,33.16-11.85,60.35v34.666c0,31.811,1.086,50.977,3.269,57.496c2.177,6.527,8.439,9.781,18.797,9.781
		c1.901,0,4.763,0,8.58,0c3.811,0,6.673,0,8.581,0h2.042c5.988,0,8.989,1.508,8.989,4.516c0,3.256-2.598,4.887-7.788,4.887h-1.233
		l-14.351-0.82l-16.816-1.631h-12.304h-7.38L136.125,334.375z"/>
	<path fill="#3ACBC7" d="M456.164,335.217c-16.605,77.115,28.565,104.117-21.879,80.8c-37.507-17.336-99.284,0.719-89.911-1.787
		c45.153-12.08,56.184-13.658,66.792-19.223c19.906-10.436,14.925-17.445,11.034-24.592c-11.262-20.686-33.129-31.594-54.71-31.417
		c-18.795,0.157-39.29,4.562-52.776,14.998c-13.48,10.434-23.084,25.137-28.803,44.112c-2.182,7.049-2.434,12.953-3.27,17.49
		c-2.894,15.658-2.044,25.268-2.044,25.268c0,27.15,7.439,49.053,22.32,65.736s34.345,25.02,58.373,25.02
		c25.941,0,46.281-9.061,61.028-27.203c5.733-7.037,9.832-14.756,12.29-23.152c0-0.811,0.682-4.199,2.05-10.156
		c1.086-4.598,3.135-6.9,6.143-6.9c3.275,0,4.914,1.908,4.914,5.717c0,4.635-1.498,10.766-4.495,18.389
		c-6.538,16.346-16.956,29.084-31.26,38.199c-14.297,9.127-30.987,13.697-50.05,13.697c-27.786,0-50.127-9.4-67.011-28.199
		c-16.895-18.795-25.335-43.578-25.335-74.379c0-31.877,8.787-57.822,26.357-77.84c17.566-20.027,35.845-30.04,72.407-30.04
		c39.085,0,49.646,23.207,67.242,39.508C442.263,375.459,459.107,321.559,456.164,335.217z"/>
</g>
<path fill-rule="evenodd" clip-rule="evenodd" fill="none" stroke="#3ACBC7" stroke-width="19" stroke-miterlimit="10" d="
	M181.111,184.039c0,0-96.487-107.3-41.498-148.977c34.582-26.207,59.481-19.31,157.695,24.831c0,0,109.418-66.584,152.16-27.587
	c65.016,59.313-35.965,151.733-35.965,151.733s133.913,128.927,154.928,322.783c16.601,153.113-148.012,158.631-265.592,157.252
	c-117.578-1.381-289.106,13.793-276.656-151.736C38.632,346.809,107.797,266.804,181.111,184.039z"/>
<line fill="none" stroke="#3ACBC7" stroke-width="19" stroke-miterlimit="10" x1="177.696" y1="184.039" x2="417.441" y2="184.039"/>
</svg>
